<?xml version="1.0" encoding="UTF-8" standalone="no"?>
<!DOCTYPE svg PUBLIC "-//W3C//DTD SVG 1.1//EN"
 "http://www.w3.org/Graphics/SVG/1.1/DTD/svg11.dtd">
<!-- Generated by graphviz version 2.47.0 (20210316.0004)
 -->
<!-- Title: dependencies Pages: 1 -->
<svg width="2253pt" height="284pt"
 viewBox="0.00 0.00 2253.00 284.00" xmlns="http://www.w3.org/2000/svg" xmlns:xlink="http://www.w3.org/1999/xlink">
<g id="graph0" class="graph" transform="scale(1 1) rotate(0) translate(4 280)">
<title>dependencies</title>
<polygon fill="white" stroke="transparent" points="-4,4 -4,-280 2249,-280 2249,4 -4,4"/>
<text text-anchor="start" x="1101.51" y="-42.4" font-family="Times-12" font-weight="bold" font-size="14.00">Legend</text>
<polygon fill="#ffffb3" stroke="transparent" points="888.5,-10 888.5,-30 908.5,-30 908.5,-10 888.5,-10"/>
<text text-anchor="start" x="912.13" y="-15.4" font-family="Times-12" font-size="14.00"> &#160;Declarations</text>
<polygon fill="#8dd3c7" stroke="transparent" points="1001.5,-10 1001.5,-30 1021.5,-30 1021.5,-10 1001.5,-10"/>
<text text-anchor="start" x="1025.23" y="-15.4" font-family="Times-12" font-size="14.00"> &#160;Module</text>
<polygon fill="#80b1d3" stroke="transparent" points="1087.5,-10 1087.5,-30 1107.5,-30 1107.5,-10 1087.5,-10"/>
<text text-anchor="start" x="1111.28" y="-15.4" font-family="Times-12" font-size="14.00"> &#160;Bootstrap</text>
<polygon fill="#fdb462" stroke="transparent" points="1184.5,-10 1184.5,-30 1204.5,-30 1204.5,-10 1184.5,-10"/>
<text text-anchor="start" x="1208.17" y="-15.4" font-family="Times-12" font-size="14.00"> &#160;Providers</text>
<polygon fill="#fb8072" stroke="transparent" points="1280.5,-10 1280.5,-30 1300.5,-30 1300.5,-10 1280.5,-10"/>
<text text-anchor="start" x="1304.23" y="-15.4" font-family="Times-12" font-size="14.00"> &#160;Exports</text>
<g id="clust1" class="cluster">
<title>cluster_AppModule</title>
<polygon fill="none" stroke="black" stroke-dasharray="1,5" points="8,-70 8,-268 2237,-268 2237,-70 8,-70"/>
</g>
<g id="clust2" class="cluster">
<title>cluster_AppModule_declarations</title>
<polygon fill="none" stroke="black" points="168,-78 168,-130 2229,-130 2229,-78 168,-78"/>
</g>
<g id="clust17" class="cluster">
<title>cluster_AppModule_imports</title>
<polygon fill="none" stroke="black" points="16,-78 16,-130 160,-130 160,-78 16,-78"/>
</g>
<g id="clust19" class="cluster">
<title>cluster_AppModule_bootstrap</title>
<polygon fill="none" stroke="black" points="1018,-208 1018,-260 1142,-260 1142,-208 1018,-208"/>
</g>
<!-- AboutUsComponent -->
<g id="node1" class="node">
<title>AboutUsComponent</title>
<polygon fill="#ffffb3" stroke="black" points="2220.88,-122 2089.12,-122 2089.12,-86 2220.88,-86 2220.88,-122"/>
<text text-anchor="middle" x="2155" y="-99.8" font-family="Times,serif" font-size="14.00">AboutUsComponent</text>
</g>
<!-- AppModule -->
<g id="node15" class="node">
<title>AppModule</title>
<polygon fill="#8dd3c7" stroke="black" points="1121.66,-187 1118.66,-191 1097.66,-191 1094.66,-187 1038.34,-187 1038.34,-151 1121.66,-151 1121.66,-187"/>
<text text-anchor="middle" x="1080" y="-164.8" font-family="Times,serif" font-size="14.00">AppModule</text>
</g>
<!-- AboutUsComponent&#45;&gt;AppModule -->
<g id="edge1" class="edge">
<title>AboutUsComponent&#45;&gt;AppModule</title>
<path fill="none" stroke="black" d="M2155,-122.32C2155,-145.66 2155,-183 2155,-183 2155,-183 1131.81,-183 1131.81,-183"/>
<polygon fill="black" stroke="black" points="1131.81,-179.5 1121.81,-183 1131.81,-186.5 1131.81,-179.5"/>
</g>
<!-- AdminComponent -->
<g id="node2" class="node">
<title>AdminComponent</title>
<polygon fill="#ffffb3" stroke="black" points="2071.22,-122 1950.78,-122 1950.78,-86 2071.22,-86 2071.22,-122"/>
<text text-anchor="middle" x="2011" y="-99.8" font-family="Times,serif" font-size="14.00">AdminComponent</text>
</g>
<!-- AdminComponent&#45;&gt;AppModule -->
<g id="edge2" class="edge">
<title>AdminComponent&#45;&gt;AppModule</title>
<path fill="none" stroke="black" d="M2011,-122.29C2011,-144.21 2011,-178 2011,-178 2011,-178 1131.81,-178 1131.81,-178"/>
<polygon fill="black" stroke="black" points="1131.81,-174.5 1121.81,-178 1131.81,-181.5 1131.81,-174.5"/>
</g>
<!-- AppComponent -->
<g id="node3" class="node">
<title>AppComponent</title>
<polygon fill="#ffffb3" stroke="black" points="1932.94,-122 1827.06,-122 1827.06,-86 1932.94,-86 1932.94,-122"/>
<text text-anchor="middle" x="1880" y="-99.8" font-family="Times,serif" font-size="14.00">AppComponent</text>
</g>
<!-- AppComponent&#45;&gt;AppModule -->
<g id="edge3" class="edge">
<title>AppComponent&#45;&gt;AppModule</title>
<path fill="none" stroke="black" d="M1880,-122.03C1880,-142.77 1880,-174 1880,-174 1880,-174 1131.89,-174 1131.89,-174"/>
<polygon fill="black" stroke="black" points="1131.89,-170.5 1121.89,-174 1131.89,-177.5 1131.89,-170.5"/>
</g>
<!-- CardLoaderComponent -->
<g id="node4" class="node">
<title>CardLoaderComponent</title>
<polygon fill="#ffffb3" stroke="black" points="1809.19,-122 1660.81,-122 1660.81,-86 1809.19,-86 1809.19,-122"/>
<text text-anchor="middle" x="1735" y="-99.8" font-family="Times,serif" font-size="14.00">CardLoaderComponent</text>
</g>
<!-- CardLoaderComponent&#45;&gt;AppModule -->
<g id="edge4" class="edge">
<title>CardLoaderComponent&#45;&gt;AppModule</title>
<path fill="none" stroke="black" d="M1735,-122.11C1735,-141.34 1735,-169 1735,-169 1735,-169 1131.97,-169 1131.97,-169"/>
<polygon fill="black" stroke="black" points="1131.97,-165.5 1121.97,-169 1131.97,-172.5 1131.97,-165.5"/>
</g>
<!-- CarouselImagesComponent -->
<g id="node5" class="node">
<title>CarouselImagesComponent</title>
<polygon fill="#ffffb3" stroke="black" points="1642.52,-122 1471.48,-122 1471.48,-86 1642.52,-86 1642.52,-122"/>
<text text-anchor="middle" x="1557" y="-99.8" font-family="Times,serif" font-size="14.00">CarouselImagesComponent</text>
</g>
<!-- CarouselImagesComponent&#45;&gt;AppModule -->
<g id="edge5" class="edge">
<title>CarouselImagesComponent&#45;&gt;AppModule</title>
<path fill="none" stroke="black" d="M1557,-122.3C1557,-140.27 1557,-165 1557,-165 1557,-165 1131.91,-165 1131.91,-165"/>
<polygon fill="black" stroke="black" points="1131.91,-161.5 1121.91,-165 1131.91,-168.5 1131.91,-161.5"/>
</g>
<!-- CarritoComponent -->
<g id="node6" class="node">
<title>CarritoComponent</title>
<polygon fill="#ffffb3" stroke="black" points="1453.49,-122 1332.51,-122 1332.51,-86 1453.49,-86 1453.49,-122"/>
<text text-anchor="middle" x="1393" y="-99.8" font-family="Times,serif" font-size="14.00">CarritoComponent</text>
</g>
<!-- CarritoComponent&#45;&gt;AppModule -->
<g id="edge6" class="edge">
<title>CarritoComponent&#45;&gt;AppModule</title>
<path fill="none" stroke="black" d="M1393,-122.03C1393,-138.4 1393,-160 1393,-160 1393,-160 1131.89,-160 1131.89,-160"/>
<polygon fill="black" stroke="black" points="1131.89,-156.5 1121.89,-160 1131.89,-163.5 1131.89,-156.5"/>
</g>
<!-- ContactUsComponent -->
<g id="node7" class="node">
<title>ContactUsComponent</title>
<polygon fill="#ffffb3" stroke="black" points="1314.43,-122 1173.57,-122 1173.57,-86 1314.43,-86 1314.43,-122"/>
<text text-anchor="middle" x="1244" y="-99.8" font-family="Times,serif" font-size="14.00">ContactUsComponent</text>
</g>
<!-- ContactUsComponent&#45;&gt;AppModule -->
<g id="edge7" class="edge">
<title>ContactUsComponent&#45;&gt;AppModule</title>
<path fill="none" stroke="black" d="M1244,-122.19C1244,-137.18 1244,-156 1244,-156 1244,-156 1131.81,-156 1131.81,-156"/>
<polygon fill="black" stroke="black" points="1131.81,-152.5 1121.81,-156 1131.81,-159.5 1131.81,-152.5"/>
</g>
<!-- EventoFormComponent -->
<g id="node8" class="node">
<title>EventoFormComponent</title>
<polygon fill="#ffffb3" stroke="black" points="1155.82,-122 1004.18,-122 1004.18,-86 1155.82,-86 1155.82,-122"/>
<text text-anchor="middle" x="1080" y="-99.8" font-family="Times,serif" font-size="14.00">EventoFormComponent</text>
</g>
<!-- EventoFormComponent&#45;&gt;AppModule -->
<g id="edge8" class="edge">
<title>EventoFormComponent&#45;&gt;AppModule</title>
<path fill="none" stroke="black" d="M1080,-122.11C1080,-122.11 1080,-140.99 1080,-140.99"/>
<polygon fill="black" stroke="black" points="1076.5,-140.99 1080,-150.99 1083.5,-140.99 1076.5,-140.99"/>
</g>
<!-- HomeComponent -->
<g id="node9" class="node">
<title>HomeComponent</title>
<polygon fill="#ffffb3" stroke="black" points="986.55,-122 871.45,-122 871.45,-86 986.55,-86 986.55,-122"/>
<text text-anchor="middle" x="929" y="-99.8" font-family="Times,serif" font-size="14.00">HomeComponent</text>
</g>
<!-- HomeComponent&#45;&gt;AppModule -->
<g id="edge9" class="edge">
<title>HomeComponent&#45;&gt;AppModule</title>
<path fill="none" stroke="black" d="M929,-122.19C929,-137.18 929,-156 929,-156 929,-156 1028.34,-156 1028.34,-156"/>
<polygon fill="black" stroke="black" points="1028.34,-159.5 1038.34,-156 1028.34,-152.5 1028.34,-159.5"/>
</g>
<!-- LoginComponent -->
<g id="node10" class="node">
<title>LoginComponent</title>
<polygon fill="#ffffb3" stroke="black" points="853.28,-122 738.72,-122 738.72,-86 853.28,-86 853.28,-122"/>
<text text-anchor="middle" x="796" y="-99.8" font-family="Times,serif" font-size="14.00">LoginComponent</text>
</g>
<!-- LoginComponent&#45;&gt;AppModule -->
<g id="edge10" class="edge">
<title>LoginComponent&#45;&gt;AppModule</title>
<path fill="none" stroke="black" d="M796,-122.03C796,-138.4 796,-160 796,-160 796,-160 1028.09,-160 1028.09,-160"/>
<polygon fill="black" stroke="black" points="1028.09,-163.5 1038.09,-160 1028.09,-156.5 1028.09,-163.5"/>
</g>
<!-- NavbarComponent -->
<g id="node11" class="node">
<title>NavbarComponent</title>
<polygon fill="#ffffb3" stroke="black" points="720.03,-122 597.97,-122 597.97,-86 720.03,-86 720.03,-122"/>
<text text-anchor="middle" x="659" y="-99.8" font-family="Times,serif" font-size="14.00">NavbarComponent</text>
</g>
<!-- NavbarComponent&#45;&gt;AppModule -->
<g id="edge11" class="edge">
<title>NavbarComponent&#45;&gt;AppModule</title>
<path fill="none" stroke="black" d="M659,-122.3C659,-140.27 659,-165 659,-165 659,-165 1028.09,-165 1028.09,-165"/>
<polygon fill="black" stroke="black" points="1028.09,-168.5 1038.09,-165 1028.09,-161.5 1028.09,-168.5"/>
</g>
<!-- PerfilComponent -->
<g id="node12" class="node">
<title>PerfilComponent</title>
<polygon fill="#ffffb3" stroke="black" points="580.43,-122 467.57,-122 467.57,-86 580.43,-86 580.43,-122"/>
<text text-anchor="middle" x="524" y="-99.8" font-family="Times,serif" font-size="14.00">PerfilComponent</text>
</g>
<!-- PerfilComponent&#45;&gt;AppModule -->
<g id="edge12" class="edge">
<title>PerfilComponent&#45;&gt;AppModule</title>
<path fill="none" stroke="black" d="M524,-122.11C524,-141.34 524,-169 524,-169 524,-169 1028.21,-169 1028.21,-169"/>
<polygon fill="black" stroke="black" points="1028.21,-172.5 1038.21,-169 1028.21,-165.5 1028.21,-172.5"/>
</g>
<!-- RecoverComponent -->
<g id="node13" class="node">
<title>RecoverComponent</title>
<polygon fill="#ffffb3" stroke="black" points="449.97,-122 322.03,-122 322.03,-86 449.97,-86 449.97,-122"/>
<text text-anchor="middle" x="386" y="-99.8" font-family="Times,serif" font-size="14.00">RecoverComponent</text>
</g>
<!-- RecoverComponent&#45;&gt;AppModule -->
<g id="edge13" class="edge">
<title>RecoverComponent&#45;&gt;AppModule</title>
<path fill="none" stroke="black" d="M386,-122.03C386,-142.77 386,-174 386,-174 386,-174 1028.15,-174 1028.15,-174"/>
<polygon fill="black" stroke="black" points="1028.15,-177.5 1038.15,-174 1028.15,-170.5 1028.15,-177.5"/>
</g>
<!-- RegisterComponent -->
<g id="node14" class="node">
<title>RegisterComponent</title>
<polygon fill="#ffffb3" stroke="black" points="303.98,-122 176.02,-122 176.02,-86 303.98,-86 303.98,-122"/>
<text text-anchor="middle" x="240" y="-99.8" font-family="Times,serif" font-size="14.00">RegisterComponent</text>
</g>
<!-- RegisterComponent&#45;&gt;AppModule -->
<g id="edge14" class="edge">
<title>RegisterComponent&#45;&gt;AppModule</title>
<path fill="none" stroke="black" d="M240,-122.29C240,-144.21 240,-178 240,-178 240,-178 1028.06,-178 1028.06,-178"/>
<polygon fill="black" stroke="black" points="1028.06,-181.5 1038.06,-178 1028.06,-174.5 1028.06,-181.5"/>
</g>
<!-- AppComponent  -->
<g id="node17" class="node">
<title>AppComponent </title>
<polygon fill="#80b1d3" stroke="black" points="1134.44,-252 1025.56,-252 1025.56,-216 1134.44,-216 1134.44,-252"/>
<text text-anchor="middle" x="1080" y="-229.8" font-family="Times,serif" font-size="14.00">AppComponent </text>
</g>
<!-- AppModule&#45;&gt;AppComponent  -->
<g id="edge16" class="edge">
<title>AppModule&#45;&gt;AppComponent </title>
<path fill="none" stroke="black" stroke-dasharray="1,5" d="M1080,-187.11C1080,-187.11 1080,-205.99 1080,-205.99"/>
<polygon fill="black" stroke="black" points="1076.5,-205.99 1080,-215.99 1083.5,-205.99 1076.5,-205.99"/>
</g>
<!-- AppRoutingModule -->
<g id="node16" class="node">
<title>AppRoutingModule</title>
<polygon fill="#8dd3c7" stroke="black" points="152.27,-122 149.27,-126 128.27,-126 125.27,-122 23.73,-122 23.73,-86 152.27,-86 152.27,-122"/>
<text text-anchor="middle" x="88" y="-99.8" font-family="Times,serif" font-size="14.00">AppRoutingModule</text>
</g>
<!-- AppRoutingModule&#45;&gt;AppModule -->
<g id="edge15" class="edge">
<title>AppRoutingModule&#45;&gt;AppModule</title>
<path fill="none" stroke="black" d="M88,-122.32C88,-145.66 88,-183 88,-183 88,-183 1028.32,-183 1028.32,-183"/>
<polygon fill="black" stroke="black" points="1028.32,-186.5 1038.32,-183 1028.32,-179.5 1028.32,-186.5"/>
</g>
</g>
</svg>
